<svg xmlns="http://www.w3.org/2000/svg" xmlns:xlink="http://www.w3.org/1999/xlink" id="svg" version="1.1" width="400" height="400" viewBox="0 0 400 400" style="display: block;">
        <g transform="matrix(1 0 0 1 94 -160)">
            <g transform="matrix(1,0,0,1,8,350)"><line x1="-66.1417" y1="113.386" x2="69.92127227783203" y2="-120.9449234008789" stroke-width="26" stroke="#000000" transform="matrix(1 0 0 1 -1.88992 3.77946)" stroke-opacity="1" fill="#000000" fill-opacity="1" stroke-linecap="round"></line><line x1="-68.0315" y1="-7.00463e-05" x2="68.0315" y2="-7.00463e-05" stroke-width="26" stroke="#000000" transform="matrix(1 0 0 1 0.000104486 117.165)" stroke-linecap="round"></line><line x1="2.50546e-05" y1="113.386" x2="0.000035041968658333644" y2="-120.9449234008789" stroke-width="26" stroke="#000000" transform="matrix(1 0 0 1 68.0311 3.77946)" stroke-linecap="round" stroke-linejoin="miter"></line></g><g transform="matrix(1,0,0,1,200,350)"><line x1="66.1417" y1="113.386" x2="-69.9213" y2="-120.945" stroke-width="26" stroke="#000000" transform="matrix(1 0 0 1 1.89008 3.77994)" class="" stroke-opacity="1" fill="#000000" fill-opacity="1" stroke-linecap="round"></line><line x1="68.0315" y1="-8.32517e-05" x2="-68.0315" y2="-8.32517e-05" stroke-width="26" stroke="#000000" transform="matrix(1 0 0 1 0.0000610352 117.164)" class="" stroke-linecap="round"></line><line x1="-1.95454e-05" y1="113.386" x2="-2.95328e-05" y2="-120.945" stroke-width="26" stroke="#000000" transform="matrix(1 0 0 1 -68.0309 3.77994)" stroke-linecap="round" stroke-linejoin="miter"></line></g><path d="M 136.06219482421875 117.16246795654297 L -0.00028127385303378105 -117.1664810180664 L 0.00002426522951282095 117.16548919677734 Z " stroke="#000000" stroke-opacity="1" stroke-width="1" transform="matrix(1 0 0 1 130 350)" fill="#000000" fill-opacity="1" class=""></path>
        </g>
    </svg>