<svg xmlns="http://www.w3.org/2000/svg" xmlns:xlink="http://www.w3.org/1999/xlink" id="svg" version="1.1" width="400" height="400" viewBox="0 0 400 400" style="display: block;/* transform: scale(0.1); */color: white;">
        <g class="content" transform="matrix(1 0 0 1 10 64)">
            <g transform="matrix(1,0,0,1,298.5826721191406,487.5591125488281)"><g transform="matrix(1,0,0,1,0.00023565560695715249,0.00043309354805387557)"><g transform="matrix(1,0,0,1,-2.8990143619012088e-12,3.126388037344441e-11)" class=""><line x1="66.1417" y1="113.386" x2="-69.9213" y2="-120.945" stroke-width="26" stroke="#000000" transform="matrix(6.12323e-17 -1 1 6.12323e-17 -114.771 -449.219)" class="" stroke-opacity="1" fill="#000000" fill-opacity="1" stroke-linecap="round"></line><line x1="68.0315" y1="-7.22268e-05" x2="-68.0315" y2="-7.22268e-05" stroke-width="26" stroke="#000000" transform="matrix(6.12323e-17 -1 1 6.12323e-17 -1.38351 -447.329)" class="" stroke-linecap="round"></line><line x1="-4.56968e-05" y1="113.386" x2="-5.56842e-05" y2="-120.945" stroke-width="26" stroke="#000000" transform="matrix(6.12323e-17 -1 1 6.12323e-17 -114.771 -379.298)" class="" stroke-linecap="round" stroke-linejoin="miter"></line></g></g></g><g transform="matrix(1,0,0,1,487.6189270019531,487.56304931640625)" class=""><line x1="-66.1417" y1="113.386" x2="69.9213" y2="-120.945" stroke-width="26" stroke="#000000" transform="matrix(6.12323e-17 -1 1 6.12323e-17 -303.802 -256.406)" class="" stroke-opacity="1" fill="#000000" fill-opacity="1" stroke-linecap="round"></line><line x1="-68.0315" y1="-0.000102299" x2="68.0315" y2="-0.000102299" stroke-width="26" stroke="#000000" transform="matrix(6.12323e-17 -1 1 6.12323e-17 -190.417 -258.296)" class="" stroke-linecap="round"></line><line x1="1.19307e-05" y1="113.386" x2="2.19181e-05" y2="-120.945" stroke-width="26" stroke="#000000" transform="matrix(6.12323e-17 -1 1 6.12323e-17 -303.802 -326.328)" class="" stroke-linecap="round" stroke-linejoin="miter"></line></g><path d="M -136.06219482421875 117.1624755859375 L 0.00028818962164223194 -117.16647338867188 L -0.00001734943907649722 117.16549682617188 L -136.06219482421875 117.1624755859375 Z " stroke="#000000" stroke-opacity="1" stroke-width="1" transform="matrix(0 -1 1 0 180.038 161.235)" fill="#000000" fill-opacity="1" class=""></path>
        </g>
    </svg>